<?xml version="1.0" encoding="UTF-8"?>
<svg xmlns="http://www.w3.org/2000/svg" viewBox="0 0 900 360" fill="none" role="img" aria-label="Foreman wordmark">
  <title>Foreman wordmark</title>

  <g id="mascot" transform="translate(0,0)">
    <ellipse cx="160" cy="278" rx="88" ry="68" fill="#8B5A2B" stroke="#1E1E1E" stroke-width="4"/>
    <path d="M 96 226 Q 96 216 106 216 L 214 216 Q 224 216 224 226 L 224 322 Q 224 332 214 332 L 106 332 Q 96 332 96 322 Z" fill="#FF8C42" stroke="#1E1E1E" stroke-width="4" stroke-linejoin="round"/>
    <rect x="98" y="248" width="124" height="9" fill="#E8E8E8"/>
    <rect x="98" y="288" width="124" height="9" fill="#E8E8E8"/>
    <line x1="160" y1="216" x2="160" y2="332" stroke="#1E1E1E" stroke-width="4"/>
    <circle cx="160" cy="160" r="72" fill="#8B5A2B" stroke="#1E1E1E" stroke-width="4"/>
    <circle cx="134" cy="155" r="14" fill="#FFFFFF" stroke="#1E1E1E" stroke-width="4"/>
    <circle cx="186" cy="155" r="14" fill="#FFFFFF" stroke="#1E1E1E" stroke-width="4"/>
    <circle cx="138" cy="159" r="6.5" fill="#1E1E1E"/>
    <circle cx="190" cy="159" r="6.5" fill="#1E1E1E"/>
    <circle cx="140" cy="156" r="2" fill="#FFFFFF"/>
    <circle cx="192" cy="156" r="2" fill="#FFFFFF"/>
    <path d="M 152 184 L 168 184 L 160 195 Z" fill="#1E1E1E" stroke="#1E1E1E" stroke-width="2.5" stroke-linejoin="round"/>
    <rect x="151" y="195" width="8" height="22" rx="1.5" fill="#FFFFFF" stroke="#1E1E1E" stroke-width="4"/>
    <rect x="161" y="195" width="8" height="22" rx="1.5" fill="#FFFFFF" stroke="#1E1E1E" stroke-width="4"/>
    <ellipse cx="160" cy="100" rx="92" ry="11" fill="#FF8C42" stroke="#1E1E1E" stroke-width="4"/>
    <path d="M 108 100 Q 108 48 160 48 Q 212 48 212 100 Z" fill="#FFB52E" stroke="#1E1E1E" stroke-width="4" stroke-linejoin="round"/>
    <circle cx="160" cy="76" r="15" fill="#1E1E1E" stroke="#1E1E1E" stroke-width="2"/>
    <text x="160" y="83" font-family="Georgia, 'Times New Roman', serif" font-weight="bold" font-size="20" text-anchor="middle" fill="#FFB52E">F</text>
  </g>

  <g id="wordmark" transform="translate(350,140)">
    <text x="0" y="60" font-family="Helvetica, Arial, sans-serif" font-weight="800" font-size="100" fill="#1E1E1E" letter-spacing="-2">Foreman</text>
    <text x="0" y="110" font-family="Helvetica, Arial, sans-serif" font-weight="500" font-size="26" fill="#7A7A7A" letter-spacing="0">your agent guardian</text>
  </g>
</svg>
