<?xml version="1.0" encoding="UTF-8"?>
<svg xmlns="http://www.w3.org/2000/svg" viewBox="0 0 320 360" fill="none" role="img" aria-label="Foreman the Beaver mascot — blinking">
  <title>Foreman the Beaver (blink frame)</title>

  <g id="tail" stroke="#1E1E1E" stroke-width="4" stroke-linejoin="round">
    <ellipse cx="248" cy="298" rx="30" ry="18" fill="#6B4423" transform="rotate(28 248 298)"/>
    <line x1="232" y1="285" x2="262" y2="312" stroke-width="2"/>
    <line x1="238" y1="278" x2="270" y2="304" stroke-width="2"/>
  </g>

  <g id="body" stroke="#1E1E1E" stroke-width="4" stroke-linejoin="round">
    <ellipse cx="160" cy="278" rx="88" ry="68" fill="#8B5A2B"/>
  </g>

  <g id="arms" stroke="#1E1E1E" stroke-width="4" stroke-linejoin="round">
    <ellipse cx="76" cy="282" rx="22" ry="32" fill="#8B5A2B"/>
    <ellipse cx="244" cy="282" rx="22" ry="32" fill="#8B5A2B"/>
  </g>

  <g id="vest" stroke="#1E1E1E" stroke-width="4" stroke-linejoin="round">
    <path d="M 96 226 Q 96 216 106 216 L 214 216 Q 224 216 224 226 L 224 322 Q 224 332 214 332 L 106 332 Q 96 332 96 322 Z" fill="#FF8C42"/>
    <rect x="98" y="248" width="124" height="9" fill="#E8E8E8" stroke-width="0"/>
    <rect x="98" y="288" width="124" height="9" fill="#E8E8E8" stroke-width="0"/>
    <line x1="160" y1="216" x2="160" y2="332"/>
  </g>

  <g id="clipboard" stroke="#1E1E1E" stroke-width="4" stroke-linejoin="round">
    <rect x="218" y="254" width="58" height="78" rx="4" fill="#C9A876"/>
    <rect x="234" y="248" width="26" height="10" rx="2" fill="#4A3C2A"/>
    <g stroke="#00D084" stroke-width="3.5" stroke-linecap="round" stroke-linejoin="round" fill="none">
      <polyline points="225,277 231,284 242,270"/>
      <polyline points="225,297 231,304 242,290"/>
      <polyline points="225,317 231,324 242,310"/>
    </g>
    <g stroke="#4A3C2A" stroke-width="2" stroke-linecap="round">
      <line x1="248" y1="278" x2="270" y2="278"/>
      <line x1="248" y1="298" x2="270" y2="298"/>
      <line x1="248" y1="318" x2="270" y2="318"/>
    </g>
  </g>

  <g id="head" stroke="#1E1E1E" stroke-width="4" stroke-linejoin="round">
    <circle cx="160" cy="160" r="72" fill="#8B5A2B"/>
  </g>

  <g id="face" stroke="#1E1E1E" stroke-width="4" stroke-linejoin="round">
    <path d="M 120 155 Q 134 160 148 155" stroke-width="5" stroke-linecap="round" fill="none"/>
    <path d="M 172 155 Q 186 160 200 155" stroke-width="5" stroke-linecap="round" fill="none"/>
    <path d="M 152 184 L 168 184 L 160 195 Z" fill="#1E1E1E" stroke-width="2.5"/>
    <rect x="151" y="195" width="8" height="22" rx="1.5" fill="#FFFFFF"/>
    <rect x="161" y="195" width="8" height="22" rx="1.5" fill="#FFFFFF"/>
    <line x1="159" y1="196" x2="159" y2="216" stroke-width="2"/>
  </g>

  <g id="hat" stroke="#1E1E1E" stroke-width="4" stroke-linejoin="round">
    <ellipse cx="160" cy="100" rx="92" ry="11" fill="#FF8C42"/>
    <path d="M 108 100 Q 108 48 160 48 Q 212 48 212 100 Z" fill="#FFB52E"/>
    <circle cx="160" cy="76" r="15" fill="#1E1E1E" stroke-width="2"/>
  </g>
  <text x="160" y="83" font-family="Georgia, 'Times New Roman', serif" font-weight="bold" font-size="20" text-anchor="middle" fill="#FFB52E">F</text>
</svg>
