<?xml version="1.0" encoding="UTF-8"?>
<svg xmlns="http://www.w3.org/2000/svg" viewBox="0 0 1280 640" fill="none" role="img" aria-label="Foreman social preview">
  <title>Foreman — your agent guardian</title>

  <rect width="1280" height="640" fill="#1E1E1E"/>

  <g opacity="0.06">
    <path d="M 0 540 L 1280 540" stroke="#FF8C42" stroke-width="2"/>
    <path d="M 0 100 L 1280 100" stroke="#FF8C42" stroke-width="2"/>
  </g>

  <g id="mascot" transform="translate(40,140) scale(1.05)">
    <ellipse cx="248" cy="298" rx="30" ry="18" fill="#6B4423" stroke="#1E1E1E" stroke-width="4" transform="rotate(28 248 298)"/>
    <ellipse cx="160" cy="278" rx="88" ry="68" fill="#8B5A2B" stroke="#1E1E1E" stroke-width="4"/>
    <ellipse cx="76" cy="282" rx="22" ry="32" fill="#8B5A2B" stroke="#1E1E1E" stroke-width="4"/>
    <ellipse cx="244" cy="282" rx="22" ry="32" fill="#8B5A2B" stroke="#1E1E1E" stroke-width="4"/>
    <path d="M 96 226 Q 96 216 106 216 L 214 216 Q 224 216 224 226 L 224 322 Q 224 332 214 332 L 106 332 Q 96 332 96 322 Z" fill="#FF8C42" stroke="#1E1E1E" stroke-width="4" stroke-linejoin="round"/>
    <rect x="98" y="248" width="124" height="9" fill="#E8E8E8"/>
    <rect x="98" y="288" width="124" height="9" fill="#E8E8E8"/>
    <line x1="160" y1="216" x2="160" y2="332" stroke="#1E1E1E" stroke-width="4"/>
    <rect x="218" y="254" width="58" height="78" rx="4" fill="#C9A876" stroke="#1E1E1E" stroke-width="4"/>
    <rect x="234" y="248" width="26" height="10" rx="2" fill="#4A3C2A" stroke="#1E1E1E" stroke-width="4"/>
    <g stroke="#00D084" stroke-width="3.5" stroke-linecap="round" stroke-linejoin="round" fill="none">
      <polyline points="225,277 231,284 242,270"/>
      <polyline points="225,297 231,304 242,290"/>
      <polyline points="225,317 231,324 242,310"/>
    </g>
    <circle cx="160" cy="160" r="72" fill="#8B5A2B" stroke="#1E1E1E" stroke-width="4"/>
    <circle cx="134" cy="155" r="14" fill="#FFFFFF" stroke="#1E1E1E" stroke-width="4"/>
    <circle cx="186" cy="155" r="14" fill="#FFFFFF" stroke="#1E1E1E" stroke-width="4"/>
    <circle cx="138" cy="159" r="6.5" fill="#1E1E1E"/>
    <circle cx="190" cy="159" r="6.5" fill="#1E1E1E"/>
    <circle cx="140" cy="156" r="2" fill="#FFFFFF"/>
    <circle cx="192" cy="156" r="2" fill="#FFFFFF"/>
    <path d="M 152 184 L 168 184 L 160 195 Z" fill="#1E1E1E" stroke="#1E1E1E" stroke-width="2.5" stroke-linejoin="round"/>
    <rect x="151" y="195" width="8" height="22" rx="1.5" fill="#FFFFFF" stroke="#1E1E1E" stroke-width="4"/>
    <rect x="161" y="195" width="8" height="22" rx="1.5" fill="#FFFFFF" stroke="#1E1E1E" stroke-width="4"/>
    <ellipse cx="160" cy="100" rx="92" ry="11" fill="#FF8C42" stroke="#1E1E1E" stroke-width="4"/>
    <path d="M 108 100 Q 108 48 160 48 Q 212 48 212 100 Z" fill="#FFB52E" stroke="#1E1E1E" stroke-width="4" stroke-linejoin="round"/>
    <circle cx="160" cy="76" r="15" fill="#1E1E1E"/>
    <text x="160" y="83" font-family="Georgia, 'Times New Roman', serif" font-weight="bold" font-size="20" text-anchor="middle" fill="#FFB52E">F</text>
  </g>

  <g id="text" transform="translate(440,180)">
    <text x="0" y="80" font-family="Helvetica, Arial, sans-serif" font-weight="800" font-size="132" fill="#E8E8E8" letter-spacing="-3">Foreman</text>
    <text x="6" y="140" font-family="Helvetica, Arial, sans-serif" font-weight="600" font-size="32" fill="#FF8C42" letter-spacing="0">your agent guardian</text>
    <text x="6" y="220" font-family="Helvetica, Arial, sans-serif" font-weight="400" font-size="26" fill="#E8E8E8" letter-spacing="0">Your local AI agents talk to each other.</text>
    <text x="6" y="256" font-family="Helvetica, Arial, sans-serif" font-weight="400" font-size="26" fill="#E8E8E8" letter-spacing="0">You should know what they're saying.</text>
    <g transform="translate(6,310)">
      <rect x="0" y="0" width="320" height="44" rx="6" fill="none" stroke="#FF8C42" stroke-width="2"/>
      <text x="16" y="29" font-family="ui-monospace, 'SF Mono', Menlo, monospace" font-weight="500" font-size="20" fill="#FF8C42">npm install -g foreman-agent</text>
    </g>
    <text x="6" y="408" font-family="Helvetica, Arial, sans-serif" font-weight="500" font-size="22" fill="#7A7A7A">github.com/tuzlu07x/foreman</text>
  </g>
</svg>
