<?xml version="1.0" encoding="UTF-8"?>
<svg xmlns="http://www.w3.org/2000/svg" viewBox="0 0 772 160" role="img" aria-label="FOREMAN">
  <title>FOREMAN</title>
  <defs>
    <linearGradient id="og" gradientUnits="userSpaceOnUse" x1="0" y1="14" x2="0" y2="140">
      <stop offset="0" stop-color="#FFC542"/>
      <stop offset="1" stop-color="#FF8C42"/>
    </linearGradient>
  </defs>
  <g fill="#5c2a0e">
    <rect x="20" y="20" width="18" height="18"/>
    <rect x="38" y="20" width="18" height="18"/>
    <rect x="56" y="20" width="18" height="18"/>
    <rect x="74" y="20" width="18" height="18"/>
    <rect x="92" y="20" width="18" height="18"/>
    <rect x="20" y="38" width="18" height="18"/>
    <rect x="20" y="56" width="18" height="18"/>
    <rect x="20" y="74" width="18" height="18"/>
    <rect x="38" y="74" width="18" height="18"/>
    <rect x="56" y="74" width="18" height="18"/>
    <rect x="74" y="74" width="18" height="18"/>
    <rect x="20" y="92" width="18" height="18"/>
    <rect x="20" y="110" width="18" height="18"/>
    <rect x="20" y="128" width="18" height="18"/>
    <rect x="146" y="20" width="18" height="18"/>
    <rect x="164" y="20" width="18" height="18"/>
    <rect x="182" y="20" width="18" height="18"/>
    <rect x="128" y="38" width="18" height="18"/>
    <rect x="200" y="38" width="18" height="18"/>
    <rect x="128" y="56" width="18" height="18"/>
    <rect x="200" y="56" width="18" height="18"/>
    <rect x="128" y="74" width="18" height="18"/>
    <rect x="200" y="74" width="18" height="18"/>
    <rect x="128" y="92" width="18" height="18"/>
    <rect x="200" y="92" width="18" height="18"/>
    <rect x="128" y="110" width="18" height="18"/>
    <rect x="200" y="110" width="18" height="18"/>
    <rect x="146" y="128" width="18" height="18"/>
    <rect x="164" y="128" width="18" height="18"/>
    <rect x="182" y="128" width="18" height="18"/>
    <rect x="236" y="20" width="18" height="18"/>
    <rect x="254" y="20" width="18" height="18"/>
    <rect x="272" y="20" width="18" height="18"/>
    <rect x="290" y="20" width="18" height="18"/>
    <rect x="236" y="38" width="18" height="18"/>
    <rect x="308" y="38" width="18" height="18"/>
    <rect x="236" y="56" width="18" height="18"/>
    <rect x="308" y="56" width="18" height="18"/>
    <rect x="236" y="74" width="18" height="18"/>
    <rect x="254" y="74" width="18" height="18"/>
    <rect x="272" y="74" width="18" height="18"/>
    <rect x="290" y="74" width="18" height="18"/>
    <rect x="236" y="92" width="18" height="18"/>
    <rect x="272" y="92" width="18" height="18"/>
    <rect x="236" y="110" width="18" height="18"/>
    <rect x="290" y="110" width="18" height="18"/>
    <rect x="236" y="128" width="18" height="18"/>
    <rect x="308" y="128" width="18" height="18"/>
    <rect x="344" y="20" width="18" height="18"/>
    <rect x="362" y="20" width="18" height="18"/>
    <rect x="380" y="20" width="18" height="18"/>
    <rect x="398" y="20" width="18" height="18"/>
    <rect x="416" y="20" width="18" height="18"/>
    <rect x="344" y="38" width="18" height="18"/>
    <rect x="344" y="56" width="18" height="18"/>
    <rect x="344" y="74" width="18" height="18"/>
    <rect x="362" y="74" width="18" height="18"/>
    <rect x="380" y="74" width="18" height="18"/>
    <rect x="398" y="74" width="18" height="18"/>
    <rect x="344" y="92" width="18" height="18"/>
    <rect x="344" y="110" width="18" height="18"/>
    <rect x="344" y="128" width="18" height="18"/>
    <rect x="362" y="128" width="18" height="18"/>
    <rect x="380" y="128" width="18" height="18"/>
    <rect x="398" y="128" width="18" height="18"/>
    <rect x="416" y="128" width="18" height="18"/>
    <rect x="452" y="20" width="18" height="18"/>
    <rect x="524" y="20" width="18" height="18"/>
    <rect x="452" y="38" width="18" height="18"/>
    <rect x="470" y="38" width="18" height="18"/>
    <rect x="506" y="38" width="18" height="18"/>
    <rect x="524" y="38" width="18" height="18"/>
    <rect x="452" y="56" width="18" height="18"/>
    <rect x="488" y="56" width="18" height="18"/>
    <rect x="524" y="56" width="18" height="18"/>
    <rect x="452" y="74" width="18" height="18"/>
    <rect x="488" y="74" width="18" height="18"/>
    <rect x="524" y="74" width="18" height="18"/>
    <rect x="452" y="92" width="18" height="18"/>
    <rect x="524" y="92" width="18" height="18"/>
    <rect x="452" y="110" width="18" height="18"/>
    <rect x="524" y="110" width="18" height="18"/>
    <rect x="452" y="128" width="18" height="18"/>
    <rect x="524" y="128" width="18" height="18"/>
    <rect x="578" y="20" width="18" height="18"/>
    <rect x="596" y="20" width="18" height="18"/>
    <rect x="614" y="20" width="18" height="18"/>
    <rect x="560" y="38" width="18" height="18"/>
    <rect x="632" y="38" width="18" height="18"/>
    <rect x="560" y="56" width="18" height="18"/>
    <rect x="632" y="56" width="18" height="18"/>
    <rect x="560" y="74" width="18" height="18"/>
    <rect x="578" y="74" width="18" height="18"/>
    <rect x="596" y="74" width="18" height="18"/>
    <rect x="614" y="74" width="18" height="18"/>
    <rect x="632" y="74" width="18" height="18"/>
    <rect x="560" y="92" width="18" height="18"/>
    <rect x="632" y="92" width="18" height="18"/>
    <rect x="560" y="110" width="18" height="18"/>
    <rect x="632" y="110" width="18" height="18"/>
    <rect x="560" y="128" width="18" height="18"/>
    <rect x="632" y="128" width="18" height="18"/>
    <rect x="668" y="20" width="18" height="18"/>
    <rect x="740" y="20" width="18" height="18"/>
    <rect x="668" y="38" width="18" height="18"/>
    <rect x="686" y="38" width="18" height="18"/>
    <rect x="740" y="38" width="18" height="18"/>
    <rect x="668" y="56" width="18" height="18"/>
    <rect x="704" y="56" width="18" height="18"/>
    <rect x="740" y="56" width="18" height="18"/>
    <rect x="668" y="74" width="18" height="18"/>
    <rect x="704" y="74" width="18" height="18"/>
    <rect x="740" y="74" width="18" height="18"/>
    <rect x="668" y="92" width="18" height="18"/>
    <rect x="722" y="92" width="18" height="18"/>
    <rect x="740" y="92" width="18" height="18"/>
    <rect x="668" y="110" width="18" height="18"/>
    <rect x="740" y="110" width="18" height="18"/>
    <rect x="668" y="128" width="18" height="18"/>
    <rect x="740" y="128" width="18" height="18"/>
  </g>
  <g fill="url(#og)" stroke="#1E1E1E" stroke-width="1.5" shape-rendering="crispEdges">
    <rect x="14" y="14" width="18" height="18"/>
    <rect x="32" y="14" width="18" height="18"/>
    <rect x="50" y="14" width="18" height="18"/>
    <rect x="68" y="14" width="18" height="18"/>
    <rect x="86" y="14" width="18" height="18"/>
    <rect x="14" y="32" width="18" height="18"/>
    <rect x="14" y="50" width="18" height="18"/>
    <rect x="14" y="68" width="18" height="18"/>
    <rect x="32" y="68" width="18" height="18"/>
    <rect x="50" y="68" width="18" height="18"/>
    <rect x="68" y="68" width="18" height="18"/>
    <rect x="14" y="86" width="18" height="18"/>
    <rect x="14" y="104" width="18" height="18"/>
    <rect x="14" y="122" width="18" height="18"/>
    <rect x="140" y="14" width="18" height="18"/>
    <rect x="158" y="14" width="18" height="18"/>
    <rect x="176" y="14" width="18" height="18"/>
    <rect x="122" y="32" width="18" height="18"/>
    <rect x="194" y="32" width="18" height="18"/>
    <rect x="122" y="50" width="18" height="18"/>
    <rect x="194" y="50" width="18" height="18"/>
    <rect x="122" y="68" width="18" height="18"/>
    <rect x="194" y="68" width="18" height="18"/>
    <rect x="122" y="86" width="18" height="18"/>
    <rect x="194" y="86" width="18" height="18"/>
    <rect x="122" y="104" width="18" height="18"/>
    <rect x="194" y="104" width="18" height="18"/>
    <rect x="140" y="122" width="18" height="18"/>
    <rect x="158" y="122" width="18" height="18"/>
    <rect x="176" y="122" width="18" height="18"/>
    <rect x="230" y="14" width="18" height="18"/>
    <rect x="248" y="14" width="18" height="18"/>
    <rect x="266" y="14" width="18" height="18"/>
    <rect x="284" y="14" width="18" height="18"/>
    <rect x="230" y="32" width="18" height="18"/>
    <rect x="302" y="32" width="18" height="18"/>
    <rect x="230" y="50" width="18" height="18"/>
    <rect x="302" y="50" width="18" height="18"/>
    <rect x="230" y="68" width="18" height="18"/>
    <rect x="248" y="68" width="18" height="18"/>
    <rect x="266" y="68" width="18" height="18"/>
    <rect x="284" y="68" width="18" height="18"/>
    <rect x="230" y="86" width="18" height="18"/>
    <rect x="266" y="86" width="18" height="18"/>
    <rect x="230" y="104" width="18" height="18"/>
    <rect x="284" y="104" width="18" height="18"/>
    <rect x="230" y="122" width="18" height="18"/>
    <rect x="302" y="122" width="18" height="18"/>
    <rect x="338" y="14" width="18" height="18"/>
    <rect x="356" y="14" width="18" height="18"/>
    <rect x="374" y="14" width="18" height="18"/>
    <rect x="392" y="14" width="18" height="18"/>
    <rect x="410" y="14" width="18" height="18"/>
    <rect x="338" y="32" width="18" height="18"/>
    <rect x="338" y="50" width="18" height="18"/>
    <rect x="338" y="68" width="18" height="18"/>
    <rect x="356" y="68" width="18" height="18"/>
    <rect x="374" y="68" width="18" height="18"/>
    <rect x="392" y="68" width="18" height="18"/>
    <rect x="338" y="86" width="18" height="18"/>
    <rect x="338" y="104" width="18" height="18"/>
    <rect x="338" y="122" width="18" height="18"/>
    <rect x="356" y="122" width="18" height="18"/>
    <rect x="374" y="122" width="18" height="18"/>
    <rect x="392" y="122" width="18" height="18"/>
    <rect x="410" y="122" width="18" height="18"/>
    <rect x="446" y="14" width="18" height="18"/>
    <rect x="518" y="14" width="18" height="18"/>
    <rect x="446" y="32" width="18" height="18"/>
    <rect x="464" y="32" width="18" height="18"/>
    <rect x="500" y="32" width="18" height="18"/>
    <rect x="518" y="32" width="18" height="18"/>
    <rect x="446" y="50" width="18" height="18"/>
    <rect x="482" y="50" width="18" height="18"/>
    <rect x="518" y="50" width="18" height="18"/>
    <rect x="446" y="68" width="18" height="18"/>
    <rect x="482" y="68" width="18" height="18"/>
    <rect x="518" y="68" width="18" height="18"/>
    <rect x="446" y="86" width="18" height="18"/>
    <rect x="518" y="86" width="18" height="18"/>
    <rect x="446" y="104" width="18" height="18"/>
    <rect x="518" y="104" width="18" height="18"/>
    <rect x="446" y="122" width="18" height="18"/>
    <rect x="518" y="122" width="18" height="18"/>
    <rect x="572" y="14" width="18" height="18"/>
    <rect x="590" y="14" width="18" height="18"/>
    <rect x="608" y="14" width="18" height="18"/>
    <rect x="554" y="32" width="18" height="18"/>
    <rect x="626" y="32" width="18" height="18"/>
    <rect x="554" y="50" width="18" height="18"/>
    <rect x="626" y="50" width="18" height="18"/>
    <rect x="554" y="68" width="18" height="18"/>
    <rect x="572" y="68" width="18" height="18"/>
    <rect x="590" y="68" width="18" height="18"/>
    <rect x="608" y="68" width="18" height="18"/>
    <rect x="626" y="68" width="18" height="18"/>
    <rect x="554" y="86" width="18" height="18"/>
    <rect x="626" y="86" width="18" height="18"/>
    <rect x="554" y="104" width="18" height="18"/>
    <rect x="626" y="104" width="18" height="18"/>
    <rect x="554" y="122" width="18" height="18"/>
    <rect x="626" y="122" width="18" height="18"/>
    <rect x="662" y="14" width="18" height="18"/>
    <rect x="734" y="14" width="18" height="18"/>
    <rect x="662" y="32" width="18" height="18"/>
    <rect x="680" y="32" width="18" height="18"/>
    <rect x="734" y="32" width="18" height="18"/>
    <rect x="662" y="50" width="18" height="18"/>
    <rect x="698" y="50" width="18" height="18"/>
    <rect x="734" y="50" width="18" height="18"/>
    <rect x="662" y="68" width="18" height="18"/>
    <rect x="698" y="68" width="18" height="18"/>
    <rect x="734" y="68" width="18" height="18"/>
    <rect x="662" y="86" width="18" height="18"/>
    <rect x="716" y="86" width="18" height="18"/>
    <rect x="734" y="86" width="18" height="18"/>
    <rect x="662" y="104" width="18" height="18"/>
    <rect x="734" y="104" width="18" height="18"/>
    <rect x="662" y="122" width="18" height="18"/>
    <rect x="734" y="122" width="18" height="18"/>
  </g>
</svg>
